# xmcd
#
# Track frame offsets:
#	150
#	11990
#	28579
#	46274
#	54708
#	80881
#	100220
#	112757
#	144623
#	164189
#	183256
#	212701
#
# Disc length: 3155 seconds
#
# Revision: 0
# Processed by: cddbd v1.5.2PL0 Copyright (c) Steve Scherf et al.
# Submitted via: audiograbber 1.83.01
#
DISCID=aa0c510c
DTITLE=Bishop William Toney - 2005 - Any Way You Bless Me
DYEAR=2005
DGENRE=Christian
TTITLE0=Intro - Mother Tea
TTITLE1=Lift Him Up
TTITLE2=I'm Holding On
TTITLE3=Any Way You Bless Me - Intro
TTITLE4=Any Way You Bless Me
TTITLE5=Praise Break
TTITLE6=Bishop's Testimony
TTITLE7=Lord You Are All
TTITLE8=Hold On
TTITLE9=In Ispite Of
TTITLE10=Your Love Remains The Same
TTITLE11=Avaliable
EXTD=
EXTT0=
EXTT1=
EXTT2=
EXTT3=
EXTT4=
EXTT5=
EXTT6=
EXTT7=
EXTT8=
EXTT9=
EXTT10=
EXTT11=
PLAYORDER=
